# xmcd
#
# Track frame offsets:
#	150
#	14571
#	36875
#	45693
#	51794
#	61567
#	78382
#	93755
#
# Disc length: 1412 seconds
#
# Revision: 0
# Processed by: cddbd v1.5.1PL0 Copyright (c) Steve Scherf et al.
# Submitted via: EasyCDDAExtractor 5.0.2.1
#
DISCID=58058208
DTITLE=unitard - year to be hated
DYEAR=2001
DGENRE=Acoustic
TTITLE0=oh heaven
TTITLE1=don't eyes
TTITLE2=instr.
TTITLE3=dead-alive
TTITLE4=dreamboy
TTITLE5=easy
TTITLE6=year to be hated
TTITLE7=arise
EXTD=
EXTT0=
EXTT1=
EXTT2=
EXTT3=
EXTT4=
EXTT5=
EXTT6=
EXTT7=
PLAYORDER=
